<?xml version="1.0" standalone="no"?><svg xmlns="http://www.w3.org/2000/svg" viewBox="0 0 1440 320"><path fill="#0099ff" fill-opacity="1" d="M0,96L30,90.7C60,85,120,75,180,96C240,117,300,171,360,192C420,213,480,203,540,218.7C600,235,660,277,720,256C780,235,840,149,900,128C960,107,1020,149,1080,186.7C1140,224,1200,256,1260,240C1320,224,1380,160,1410,128L1440,96L1440,320L1410,320C1380,320,1320,320,1260,320C1200,320,1140,320,1080,320C1020,320,960,320,900,320C840,320,780,320,720,320C660,320,600,320,540,320C480,320,420,320,360,320C300,320,240,320,180,320C120,320,60,320,30,320L0,320Z"></path></svg>